<?xml version="1.0" encoding="UTF-8" standalone="no"?>
<!DOCTYPE svg PUBLIC "-//W3C//DTD SVG 1.1//EN" "http://www.w3.org/Graphics/SVG/1.1/DTD/svg11.dtd">
<!-- Generated by graphviz version 2.40.1 (20161225.0304)
 -->
<!-- Title: %0 Pages: 1 -->
<svg width="271pt" height="200pt" viewBox="0.00 0.00 270.99 200.00" xmlns="http://www.w3.org/2000/svg" xmlns:xlink="http://www.w3.org/1999/xlink">
<g id="graph0" class="graph" transform="scale(1 1) rotate(0) translate(4 196)">
<title>%0</title>
<polygon fill="#ffffff" stroke="transparent" points="-4,4 -4,-196 266.987,-196 266.987,4 -4,4"/>
<!-- BB0 -->
<g id="node1" class="node">
<title>BB0</title>
<polygon fill="none" stroke="#000000" stroke-width=".5" points="167.9785,-192 62.0085,-192 62.0085,-160 167.9785,-160 167.9785,-192"/>
<text text-anchor="start" x="70.001" y="-179" font-family="Courier,monospace" font-size="10.00" fill="#000000">BB0:</text>
<text text-anchor="start" x="70.001" y="-167" font-family="Courier,monospace" font-size="10.00" fill="#000000">while(n1 != n2)</text>
</g>
<!-- BB1 -->
<g id="node2" class="node">
<title>BB1</title>
<polygon fill="none" stroke="#000000" stroke-width=".5" points="213.9825,-112 132.0045,-112 132.0045,-80 213.9825,-80 213.9825,-112"/>
<text text-anchor="start" x="139.999" y="-99" font-family="Courier,monospace" font-size="10.00" fill="#000000">BB1:</text>
<text text-anchor="start" x="139.999" y="-87" font-family="Courier,monospace" font-size="10.00" fill="#000000">if(n1 &gt; n2)</text>
</g>
<!-- BB0&#45;&gt;BB1 -->
<g id="edge1" class="edge">
<title>BB0-&gt;BB1</title>
<path fill="none" stroke="#000000" stroke-width=".5" d="M126.7307,-159.8108C134.9066,-148.5336 145.9609,-133.2864 155.2135,-120.5242"/>
<polygon fill="#000000" stroke="#000000" stroke-width=".5" points="158.2377,-122.3156 161.2738,-112.1651 152.5704,-118.2068 158.2377,-122.3156"/>
<text text-anchor="middle" x="165.9905" y="-133" font-family="Courier,monospace" font-size="10.00" fill="#000000">[loop]</text>
</g>
<!-- BB2 -->
<g id="node3" class="node">
<title>BB2</title>
<polygon fill="none" stroke="#000000" stroke-width=".5" points="95.9835,-112 20.0035,-112 20.0035,-80 95.9835,-80 95.9835,-112"/>
<text text-anchor="start" x="27.9985" y="-99" font-family="Courier,monospace" font-size="10.00" fill="#000000">BB2:</text>
<text text-anchor="start" x="27.9985" y="-87" font-family="Courier,monospace" font-size="10.00" fill="#000000">return n1;</text>
</g>
<!-- BB0&#45;&gt;BB2 -->
<g id="edge2" class="edge">
<title>BB0-&gt;BB2</title>
<path fill="none" stroke="#000000" stroke-width=".5" d="M92.4028,-159.9956C79.9552,-151.177 67.0015,-142 67.0015,-142 67.0015,-142 65.1295,-132.4403 63.0922,-122.037"/>
<polygon fill="#000000" stroke="#000000" stroke-width=".5" points="66.5007,-121.2295 61.1441,-112.0886 59.6311,-122.5748 66.5007,-121.2295"/>
<text text-anchor="middle" x="91.9895" y="-133" font-family="Courier,monospace" font-size="10.00" fill="#000000">[noloop]</text>
</g>
<!-- BB3 -->
<g id="node4" class="node">
<title>BB3</title>
<polygon fill="none" stroke="#000000" stroke-width=".5" points="93.9805,-32 .0065,-32 .0065,0 93.9805,0 93.9805,-32"/>
<text text-anchor="start" x="8" y="-19" font-family="Courier,monospace" font-size="10.00" fill="#000000">BB3:</text>
<text text-anchor="start" x="8" y="-7" font-family="Courier,monospace" font-size="10.00" fill="#000000">n1 = n1 - n2;</text>
</g>
<!-- BB1&#45;&gt;BB3 -->
<g id="edge3" class="edge">
<title>BB1-&gt;BB3</title>
<path fill="none" stroke="#000000" stroke-width=".5" d="M147.4955,-79.8108C128.3676,-67.6661 101.9881,-50.9172 81.0546,-37.6261"/>
<polygon fill="#000000" stroke="#000000" stroke-width=".5" points="82.7717,-34.5705 72.4536,-32.1651 79.0197,-40.48 82.7717,-34.5705"/>
<text text-anchor="middle" x="135.9905" y="-53" font-family="Courier,monospace" font-size="10.00" fill="#000000">[true]</text>
</g>
<!-- BB4 -->
<g id="node5" class="node">
<title>BB4</title>
<polygon fill="none" stroke="#000000" stroke-width=".5" points="262.9805,-32 169.0065,-32 169.0065,0 262.9805,0 262.9805,-32"/>
<text text-anchor="start" x="177" y="-19" font-family="Courier,monospace" font-size="10.00" fill="#000000">BB4:</text>
<text text-anchor="start" x="177" y="-7" font-family="Courier,monospace" font-size="10.00" fill="#000000">n2 = n2 - n1;</text>
</g>
<!-- BB1&#45;&gt;BB4 -->
<g id="edge4" class="edge">
<title>BB1-&gt;BB4</title>
<path fill="none" stroke="#000000" stroke-width=".5" d="M181.6952,-79.8108C187.6401,-68.7505 195.6376,-53.8714 202.4146,-41.2632"/>
<polygon fill="#000000" stroke="#000000" stroke-width=".5" points="205.6532,-42.6304 207.3047,-32.1651 199.4874,-39.3163 205.6532,-42.6304"/>
<text text-anchor="middle" x="218.99" y="-53" font-family="Courier,monospace" font-size="10.00" fill="#000000">[false]</text>
</g>
<!-- BB3&#45;&gt;BB0 -->
<g id="edge5" class="edge">
<title>BB3-&gt;BB0</title>
<path fill="none" stroke="#000000" stroke-width=".5" d="M35.6381,-32.1499C22.3072,-51.1094 1.9935,-80 1.9935,-80 1.9935,-80 1.9935,-112 1.9935,-112 1.9935,-112 44.6129,-136.1384 77.5035,-154.7667"/>
<polygon fill="#000000" stroke="#000000" stroke-width=".5" points="76.0526,-157.9673 86.4788,-159.8501 79.5024,-151.8764 76.0526,-157.9673"/>
</g>
<!-- BB4&#45;&gt;BB0 -->
<g id="edge6" class="edge">
<title>BB4-&gt;BB0</title>
<path fill="none" stroke="#000000" stroke-width=".5" d="M230.2906,-32.2034C238.0174,-40.9604 245.9935,-50 245.9935,-50 245.9935,-50 245.9935,-62 245.9935,-62 245.9935,-62 231.9935,-112 231.9935,-112 231.9935,-112 192.9935,-142 192.9935,-142 192.9935,-142 178.0054,-148.5333 161.1695,-155.872"/>
<polygon fill="#000000" stroke="#000000" stroke-width=".5" points="159.4779,-152.7912 151.7095,-159.9956 162.275,-159.2081 159.4779,-152.7912"/>
</g>
</g>
</svg>