<?xml version="1.0" encoding="UTF-8" standalone="no"?>
<!DOCTYPE svg PUBLIC "-//W3C//DTD SVG 1.1//EN"
 "http://www.w3.org/Graphics/SVG/1.1/DTD/svg11.dtd">
<!-- Generated by graphviz version 2.38.0 (20140413.2041)
 -->
<!-- Title: G Pages: 1 -->
<svg width="510pt" height="373pt"
 viewBox="0.00 0.00 510.01 373.00" xmlns="http://www.w3.org/2000/svg" xmlns:xlink="http://www.w3.org/1999/xlink">
<g id="graph0" class="graph" transform="scale(1 1) rotate(0) translate(4 369)">
<title>G</title>
<polygon fill="white" stroke="none" points="-4,4 -4,-369 506.005,-369 506.005,4 -4,4"/>
<g id="clust1" class="cluster"><title>cluster1</title>
<polygon fill="none" stroke="black" points="11.608,-228 11.608,-357 494.005,-357 494.005,-228 11.608,-228"/>
<text text-anchor="middle" x="252.807" y="-341.8" font-family="Times New Roman,serif" font-size="14.00">Before Constant Folding</text>
</g>
<g id="clust2" class="cluster"><title>cluster2</title>
<polygon fill="none" stroke="black" points="11.608,-91 11.608,-220 317.934,-220 317.934,-91 11.608,-91"/>
<text text-anchor="middle" x="164.771" y="-204.8" font-family="Times New Roman,serif" font-size="14.00">After First Pass</text>
</g>
<g id="clust3" class="cluster"><title>cluster3</title>
<polygon fill="none" stroke="black" points="8,-8 8,-83 141.862,-83 141.862,-8 8,-8"/>
<text text-anchor="middle" x="74.9311" y="-67.8" font-family="Times New Roman,serif" font-size="14.00">After Second Pass</text>
</g>
<!-- n1 -->
<g id="node1" class="node"><title>n1</title>
<ellipse fill="none" stroke="black" cx="425.27" cy="-254" rx="60.9711" ry="18"/>
<text text-anchor="middle" x="425.27" y="-251.2" font-family="Times New Roman,serif" font-size="11.00">BinaryOperator [*]</text>
</g>
<!-- n2 -->
<g id="node2" class="node"><title>n2</title>
<ellipse fill="none" stroke="black" cx="249.199" cy="-254" rx="55.1467" ry="18"/>
<text text-anchor="middle" x="249.199" y="-251.2" font-family="Times New Roman,serif" font-size="11.00">IntegerLiteral [4]</text>
</g>
<!-- n1&#45;&gt;n2 -->
<g id="edge4" class="edge"><title>n1&#45;&gt;n2</title>
<path fill="none" stroke="black" d="M364.365,-254C348.472,-254 331.238,-254 315.093,-254"/>
<polygon fill="black" stroke="black" points="314.666,-250.5 304.666,-254 314.666,-257.5 314.666,-250.5"/>
<text text-anchor="middle" x="337.535" y="-257.8" font-family="Times New Roman,serif" font-size="14.00">rhs</text>
</g>
<!-- n3 -->
<g id="node3" class="node"><title>n3</title>
<ellipse fill="none" stroke="black" cx="249.199" cy="-308" rx="61.1733" ry="18"/>
<text text-anchor="middle" x="249.199" y="-305.2" font-family="Times New Roman,serif" font-size="11.00">BinaryOperator [+]</text>
</g>
<!-- n1&#45;&gt;n3 -->
<g id="edge3" class="edge"><title>n1&#45;&gt;n3</title>
<path fill="none" stroke="black" d="M382.576,-266.934C358.317,-274.46 327.538,-284.008 301.765,-292.003"/>
<polygon fill="black" stroke="black" points="300.67,-288.678 292.156,-294.984 302.744,-295.364 300.67,-288.678"/>
<text text-anchor="middle" x="337.535" y="-286.8" font-family="Times New Roman,serif" font-size="14.00">lhs</text>
</g>
<!-- nc1 -->
<g id="node6" class="node"><title>nc1</title>
<ellipse fill="none" stroke="black" cx="249.199" cy="-121" rx="60.9711" ry="18"/>
<text text-anchor="middle" x="249.199" y="-118.2" font-family="Times New Roman,serif" font-size="11.00">BinaryOperator [*]</text>
</g>
<!-- n1&#45;&gt;nc1 -->
<!-- n4 -->
<g id="node4" class="node"><title>n4</title>
<ellipse fill="none" stroke="black" cx="74.9311" cy="-254" rx="55.1467" ry="18"/>
<text text-anchor="middle" x="74.9311" y="-251.2" font-family="Times New Roman,serif" font-size="11.00">IntegerLiteral [1]</text>
</g>
<!-- n3&#45;&gt;n4 -->
<g id="edge2" class="edge"><title>n3&#45;&gt;n4</title>
<path fill="none" stroke="black" d="M206.497,-294.928C181.951,-287.234 150.775,-277.461 125.043,-269.395"/>
<polygon fill="black" stroke="black" points="126.062,-266.046 115.473,-266.395 123.968,-272.726 126.062,-266.046"/>
<text text-anchor="middle" x="160.862" y="-286.8" font-family="Times New Roman,serif" font-size="14.00">lhs</text>
</g>
<!-- n5 -->
<g id="node5" class="node"><title>n5</title>
<ellipse fill="none" stroke="black" cx="74.9311" cy="-308" rx="55.1467" ry="18"/>
<text text-anchor="middle" x="74.9311" y="-305.2" font-family="Times New Roman,serif" font-size="11.00">IntegerLiteral [2]</text>
</g>
<!-- n3&#45;&gt;n5 -->
<g id="edge1" class="edge"><title>n3&#45;&gt;n5</title>
<path fill="none" stroke="black" d="M187.464,-308C172.352,-308 156.095,-308 140.793,-308"/>
<polygon fill="black" stroke="black" points="140.379,-304.5 130.379,-308 140.378,-311.5 140.379,-304.5"/>
<text text-anchor="middle" x="160.862" y="-311.8" font-family="Times New Roman,serif" font-size="14.00">rhs</text>
</g>
<!-- nc2 -->
<g id="node7" class="node"><title>nc2</title>
<ellipse fill="none" stroke="black" cx="74.9311" cy="-117" rx="55.1467" ry="18"/>
<text text-anchor="middle" x="74.9311" y="-114.2" font-family="Times New Roman,serif" font-size="11.00">IntegerLiteral [4]</text>
</g>
<!-- nc1&#45;&gt;nc2 -->
<g id="edge6" class="edge"><title>nc1&#45;&gt;nc2</title>
<path fill="none" stroke="black" d="M188.431,-119.612C172.966,-119.253 156.246,-118.865 140.546,-118.5"/>
<polygon fill="black" stroke="black" points="140.477,-114.998 130.399,-118.265 140.315,-121.996 140.477,-114.998"/>
<text text-anchor="middle" x="160.862" y="-123.8" font-family="Times New Roman,serif" font-size="14.00">rhs</text>
</g>
<!-- nc3 -->
<g id="node8" class="node"><title>nc3</title>
<ellipse fill="none" stroke="black" cx="74.9311" cy="-171" rx="55.1467" ry="18"/>
<text text-anchor="middle" x="74.9311" y="-168.2" font-family="Times New Roman,serif" font-size="11.00">IntegerLiteral [3]</text>
</g>
<!-- nc1&#45;&gt;nc3 -->
<g id="edge5" class="edge"><title>nc1&#45;&gt;nc3</title>
<path fill="none" stroke="black" d="M205.173,-133.488C181.33,-140.408 151.551,-149.052 126.589,-156.297"/>
<polygon fill="black" stroke="black" points="125.556,-152.952 116.928,-159.101 127.507,-159.675 125.556,-152.952"/>
<text text-anchor="middle" x="160.862" y="-152.8" font-family="Times New Roman,serif" font-size="14.00">rhs</text>
</g>
<!-- nd1 -->
<g id="node9" class="node"><title>nd1</title>
<ellipse fill="none" stroke="black" cx="74.9311" cy="-34" rx="58.8623" ry="18"/>
<text text-anchor="middle" x="74.9311" y="-31.2" font-family="Times New Roman,serif" font-size="11.00">IntegerLiteral [12]</text>
</g>
<!-- nc1&#45;&gt;nd1 -->
</g>
</svg>
