<?xml version="1.0" encoding="UTF-8" standalone="no"?>
<!DOCTYPE svg PUBLIC "-//W3C//DTD SVG 1.1//EN"
 "http://www.w3.org/Graphics/SVG/1.1/DTD/svg11.dtd">
<!-- Generated by graphviz version 2.38.0 (20140413.2041)
 -->
<!-- Title: G Pages: 1 -->
<svg width="774pt" height="315pt"
 viewBox="0.00 0.00 774.00 315.00" xmlns="http://www.w3.org/2000/svg" xmlns:xlink="http://www.w3.org/1999/xlink">
<g id="graph0" class="graph" transform="scale(1 1) rotate(0) translate(4 311)">
<title>G</title>
<polygon fill="white" stroke="none" points="-4,4 -4,-311 770,-311 770,4 -4,4"/>
<g id="clust1" class="cluster"><title>cluster0</title>
<polygon fill="none" stroke="black" points="8,-8 8,-299 379,-299 379,-8 8,-8"/>
<text text-anchor="middle" x="193.5" y="-283.8" font-family="Times New Roman,serif" font-size="14.00">Original</text>
</g>
<g id="clust2" class="cluster"><title>cluster1</title>
<polygon fill="none" stroke="black" points="387,-8 387,-299 758,-299 758,-8 387,-8"/>
<text text-anchor="middle" x="572.5" y="-283.8" font-family="Times New Roman,serif" font-size="14.00">Unwrapped</text>
</g>
<!-- n0 -->
<g id="node1" class="node"><title>n0</title>
<ellipse fill="none" stroke="black" cx="194" cy="-250" rx="69.5877" ry="18"/>
<text text-anchor="middle" x="194" y="-246.3" font-family="Times New Roman,serif" font-size="14.00">CompoundStmt</text>
</g>
<!-- n1 -->
<g id="node2" class="node"><title>n1</title>
<ellipse fill="none" stroke="black" cx="194" cy="-178" rx="44.393" ry="18"/>
<text text-anchor="middle" x="194" y="-174.3" font-family="Times New Roman,serif" font-size="14.00">DeclStmt</text>
</g>
<!-- n0&#45;&gt;n1 -->
<g id="edge1" class="edge"><title>n0&#45;&gt;n1</title>
<path fill="none" stroke="black" d="M194,-231.697C194,-223.983 194,-214.712 194,-206.112"/>
<polygon fill="black" stroke="black" points="197.5,-206.104 194,-196.104 190.5,-206.104 197.5,-206.104"/>
</g>
<!-- n2 -->
<g id="node3" class="node"><title>n2</title>
<ellipse fill="none" stroke="black" cx="69" cy="-106" rx="53.0913" ry="18"/>
<text text-anchor="middle" x="69" y="-102.3" font-family="Times New Roman,serif" font-size="14.00">VarDecl [x]</text>
</g>
<!-- n1&#45;&gt;n2 -->
<g id="edge2" class="edge"><title>n1&#45;&gt;n2</title>
<path fill="none" stroke="black" d="M169.005,-163.003C150.386,-152.576 124.721,-138.204 104.053,-126.63"/>
<polygon fill="black" stroke="black" points="105.68,-123.529 95.2446,-121.697 102.26,-129.637 105.68,-123.529"/>
</g>
<!-- n3 -->
<g id="node4" class="node"><title>n3</title>
<ellipse fill="none" stroke="black" cx="194" cy="-106" rx="53.0913" ry="18"/>
<text text-anchor="middle" x="194" y="-102.3" font-family="Times New Roman,serif" font-size="14.00">VarDecl [y]</text>
</g>
<!-- n1&#45;&gt;n3 -->
<g id="edge3" class="edge"><title>n1&#45;&gt;n3</title>
<path fill="none" stroke="black" d="M194,-159.697C194,-151.983 194,-142.712 194,-134.112"/>
<polygon fill="black" stroke="black" points="197.5,-134.104 194,-124.104 190.5,-134.104 197.5,-134.104"/>
</g>
<!-- n4 -->
<g id="node5" class="node"><title>n4</title>
<ellipse fill="none" stroke="black" cx="318" cy="-106" rx="52.7911" ry="18"/>
<text text-anchor="middle" x="318" y="-102.3" font-family="Times New Roman,serif" font-size="14.00">VarDecl [z]</text>
</g>
<!-- n1&#45;&gt;n4 -->
<g id="edge4" class="edge"><title>n1&#45;&gt;n4</title>
<path fill="none" stroke="black" d="M218.795,-163.003C237.265,-152.576 262.725,-138.204 283.228,-126.63"/>
<polygon fill="black" stroke="black" points="284.978,-129.661 291.965,-121.697 281.537,-123.565 284.978,-129.661"/>
</g>
<!-- n5 -->
<g id="node6" class="node"><title>n5</title>
<ellipse fill="none" stroke="black" cx="300" cy="-34" rx="70.6878" ry="18"/>
<text text-anchor="middle" x="300" y="-30.3" font-family="Times New Roman,serif" font-size="14.00">IntegerLiteral [1]</text>
</g>
<!-- n4&#45;&gt;n5 -->
<g id="edge5" class="edge"><title>n4&#45;&gt;n5</title>
<path fill="none" stroke="black" d="M313.643,-88.055C311.639,-80.2609 309.211,-70.8219 306.963,-62.0789"/>
<polygon fill="black" stroke="black" points="310.322,-61.0886 304.442,-52.2753 303.543,-62.8319 310.322,-61.0886"/>
</g>
<!-- nb0 -->
<g id="node7" class="node"><title>nb0</title>
<ellipse fill="none" stroke="black" cx="573" cy="-250" rx="69.5877" ry="18"/>
<text text-anchor="middle" x="573" y="-246.3" font-family="Times New Roman,serif" font-size="14.00">CompoundStmt</text>
</g>
<!-- nb1 -->
<g id="node8" class="node"><title>nb1</title>
<ellipse fill="none" stroke="black" cx="457" cy="-178" rx="44.393" ry="18"/>
<text text-anchor="middle" x="457" y="-174.3" font-family="Times New Roman,serif" font-size="14.00">DeclStmt</text>
</g>
<!-- nb0&#45;&gt;nb1 -->
<g id="edge6" class="edge"><title>nb0&#45;&gt;nb1</title>
<path fill="none" stroke="black" d="M546.967,-233.291C530.016,-223.062 507.767,-209.635 489.636,-198.694"/>
<polygon fill="black" stroke="black" points="490.95,-195.4 480.58,-193.229 487.334,-201.393 490.95,-195.4"/>
</g>
<!-- nb11 -->
<g id="node9" class="node"><title>nb11</title>
<ellipse fill="none" stroke="black" cx="573" cy="-178" rx="44.393" ry="18"/>
<text text-anchor="middle" x="573" y="-174.3" font-family="Times New Roman,serif" font-size="14.00">DeclStmt</text>
</g>
<!-- nb0&#45;&gt;nb11 -->
<g id="edge7" class="edge"><title>nb0&#45;&gt;nb11</title>
<path fill="none" stroke="black" d="M573,-231.697C573,-223.983 573,-214.712 573,-206.112"/>
<polygon fill="black" stroke="black" points="576.5,-206.104 573,-196.104 569.5,-206.104 576.5,-206.104"/>
</g>
<!-- nb111 -->
<g id="node10" class="node"><title>nb111</title>
<ellipse fill="none" stroke="black" cx="688" cy="-178" rx="44.393" ry="18"/>
<text text-anchor="middle" x="688" y="-174.3" font-family="Times New Roman,serif" font-size="14.00">DeclStmt</text>
</g>
<!-- nb0&#45;&gt;nb111 -->
<g id="edge8" class="edge"><title>nb0&#45;&gt;nb111</title>
<path fill="none" stroke="black" d="M599.095,-233.116C615.799,-222.948 637.604,-209.676 655.438,-198.82"/>
<polygon fill="black" stroke="black" points="657.633,-201.582 664.355,-193.393 653.993,-195.602 657.633,-201.582"/>
</g>
<!-- nb2 -->
<g id="node11" class="node"><title>nb2</title>
<ellipse fill="none" stroke="black" cx="448" cy="-106" rx="53.0913" ry="18"/>
<text text-anchor="middle" x="448" y="-102.3" font-family="Times New Roman,serif" font-size="14.00">VarDecl [x]</text>
</g>
<!-- nb1&#45;&gt;nb2 -->
<g id="edge9" class="edge"><title>nb1&#45;&gt;nb2</title>
<path fill="none" stroke="black" d="M454.775,-159.697C453.783,-151.983 452.592,-142.712 451.486,-134.112"/>
<polygon fill="black" stroke="black" points="454.946,-133.576 450.199,-124.104 448.003,-134.469 454.946,-133.576"/>
</g>
<!-- nb3 -->
<g id="node12" class="node"><title>nb3</title>
<ellipse fill="none" stroke="black" cx="573" cy="-106" rx="53.0913" ry="18"/>
<text text-anchor="middle" x="573" y="-102.3" font-family="Times New Roman,serif" font-size="14.00">VarDecl [y]</text>
</g>
<!-- nb11&#45;&gt;nb3 -->
<g id="edge10" class="edge"><title>nb11&#45;&gt;nb3</title>
<path fill="none" stroke="black" d="M573,-159.697C573,-151.983 573,-142.712 573,-134.112"/>
<polygon fill="black" stroke="black" points="576.5,-134.104 573,-124.104 569.5,-134.104 576.5,-134.104"/>
</g>
<!-- nb4 -->
<g id="node13" class="node"><title>nb4</title>
<ellipse fill="none" stroke="black" cx="697" cy="-106" rx="52.7911" ry="18"/>
<text text-anchor="middle" x="697" y="-102.3" font-family="Times New Roman,serif" font-size="14.00">VarDecl [z]</text>
</g>
<!-- nb111&#45;&gt;nb4 -->
<g id="edge11" class="edge"><title>nb111&#45;&gt;nb4</title>
<path fill="none" stroke="black" d="M690.225,-159.697C691.217,-151.983 692.408,-142.712 693.514,-134.112"/>
<polygon fill="black" stroke="black" points="696.997,-134.469 694.801,-124.104 690.054,-133.576 696.997,-134.469"/>
</g>
<!-- nb5 -->
<g id="node14" class="node"><title>nb5</title>
<ellipse fill="none" stroke="black" cx="679" cy="-34" rx="70.6878" ry="18"/>
<text text-anchor="middle" x="679" y="-30.3" font-family="Times New Roman,serif" font-size="14.00">IntegerLiteral [1]</text>
</g>
<!-- nb4&#45;&gt;nb5 -->
<g id="edge12" class="edge"><title>nb4&#45;&gt;nb5</title>
<path fill="none" stroke="black" d="M692.643,-88.055C690.639,-80.2609 688.211,-70.8219 685.963,-62.0789"/>
<polygon fill="black" stroke="black" points="689.322,-61.0886 683.442,-52.2753 682.543,-62.8319 689.322,-61.0886"/>
</g>
</g>
</svg>
