<?xml version="1.0" encoding="UTF-8" standalone="no"?>
<!DOCTYPE svg PUBLIC "-//W3C//DTD SVG 1.1//EN"
 "http://www.w3.org/Graphics/SVG/1.1/DTD/svg11.dtd">
<!-- Generated by graphviz version 2.38.0 (20140413.2041)
 -->
<!-- Title: G Pages: 1 -->
<svg width="672pt" height="449pt"
 viewBox="0.00 0.00 672.00 449.00" xmlns="http://www.w3.org/2000/svg" xmlns:xlink="http://www.w3.org/1999/xlink">
<g id="graph0" class="graph" transform="scale(1 1) rotate(0) translate(4 445)">
<title>G</title>
<polygon fill="white" stroke="none" points="-4,4 -4,-445 668,-445 668,4 -4,4"/>
<text text-anchor="middle" x="332" y="-425.8" font-family="Times New Roman,serif" font-size="14.00">Data&#45;flow Graph &#45; mult</text>
<g id="clust1" class="cluster"><title>cluster3</title>
<polygon fill="none" stroke="black" points="8,-95 8,-234 222,-234 222,-95 8,-95"/>
</g>
<g id="clust2" class="cluster"><title>cluster2</title>
<polygon fill="none" stroke="black" points="386,-8 386,-410 600,-410 600,-8 386,-8"/>
</g>
<g id="clust3" class="cluster"><title>cluster1</title>
<polygon fill="none" stroke="black" points="308,-95 308,-234 378,-234 378,-95 308,-95"/>
</g>
<!-- n1 -->
<g id="node1" class="node"><title>n1</title>
<polygon fill="none" stroke="#b54707" stroke-width="2.5" points="316.5,-418 211.5,-418 211.5,-350 316.5,-350 316.5,-418"/>
<text text-anchor="middle" x="264" y="-402.8" font-family="Times New Roman,serif" font-size="14.00">mult</text>
<text text-anchor="middle" x="264" y="-387.8" font-family="Times New Roman,serif" font-size="14.00">a_matrix : float </text>
<text text-anchor="middle" x="264" y="-372.8" font-family="Times New Roman,serif" font-size="14.00">b_matrix : float </text>
<text text-anchor="middle" x="264" y="-357.8" font-family="Times New Roman,serif" font-size="14.00">c_matrix : float </text>
</g>
<!-- n2 -->
<g id="node17" class="node"><title>n2</title>
<ellipse fill="none" stroke="#0000ff" stroke-width="2.5" cx="264" cy="-295" rx="31.6951" ry="18"/>
<text text-anchor="middle" x="264" y="-291.3" font-family="Times New Roman,serif" font-size="14.00">loop i</text>
</g>
<!-- n1&#45;&gt;n2 -->
<g id="edge19" class="edge"><title>n1&#45;&gt;n2</title>
<path fill="none" stroke="blue" d="M264,-349.612C264,-340.852 264,-331.513 264,-323.125"/>
<polygon fill="blue" stroke="blue" points="267.5,-323.123 264,-313.123 260.5,-323.124 267.5,-323.123"/>
</g>
<!-- n16 -->
<g id="node2" class="node"><title>n16</title>
<ellipse fill="none" stroke="#eeb422" stroke-width="2.5" cx="144" cy="-121" rx="42.4939" ry="18"/>
<text text-anchor="middle" x="144" y="-117.3" font-family="Times New Roman,serif" font-size="14.00">c_matrix</text>
</g>
<!-- n17 -->
<g id="node3" class="node"><title>n17</title>
<ellipse fill="none" stroke="red" stroke-width="2.5" cx="187" cy="-208" rx="27" ry="18"/>
<text text-anchor="middle" x="187" y="-204.3" font-family="Times New Roman,serif" font-size="14.00">i</text>
</g>
<!-- n17&#45;&gt;n16 -->
<g id="edge12" class="edge"><title>n17&#45;&gt;n16</title>
<path fill="none" stroke="red" d="M178.709,-190.611C172.602,-178.539 164.173,-161.876 157.151,-147.995"/>
<polygon fill="red" stroke="red" points="160.197,-146.264 152.56,-138.92 153.951,-149.423 160.197,-146.264"/>
</g>
<!-- n18 -->
<g id="node4" class="node"><title>n18</title>
<ellipse fill="none" stroke="red" stroke-width="2.5" cx="115" cy="-208" rx="27" ry="18"/>
<text text-anchor="middle" x="115" y="-204.3" font-family="Times New Roman,serif" font-size="14.00">j</text>
</g>
<!-- n18&#45;&gt;n16 -->
<g id="edge13" class="edge"><title>n18&#45;&gt;n16</title>
<path fill="none" stroke="red" d="M120.729,-190.207C124.755,-178.409 130.224,-162.378 134.849,-148.822"/>
<polygon fill="red" stroke="red" points="138.267,-149.644 138.183,-139.049 131.642,-147.383 138.267,-149.644"/>
</g>
<!-- n19 -->
<g id="node5" class="node"><title>n19</title>
<ellipse fill="none" stroke="darkgreen" stroke-width="2.5" cx="43" cy="-208" rx="27" ry="18"/>
<text text-anchor="middle" x="43" y="-204.3" font-family="Times New Roman,serif" font-size="14.00">sum</text>
</g>
<!-- n19&#45;&gt;n16 -->
<g id="edge14" class="edge"><title>n19&#45;&gt;n16</title>
<path fill="none" stroke="black" d="M59.2274,-193.343C75.0626,-180.017 99.4105,-159.526 117.957,-143.918"/>
<polygon fill="black" stroke="black" points="120.365,-146.465 125.763,-137.348 115.858,-141.109 120.365,-146.465"/>
</g>
<!-- n7 -->
<g id="node6" class="node"><title>n7</title>
<ellipse fill="none" stroke="#b23aee" stroke-width="2.5" cx="425" cy="-121" rx="27" ry="18"/>
<text text-anchor="middle" x="425" y="-117.3" font-family="Times New Roman,serif" font-size="14.00">+</text>
</g>
<!-- n8 -->
<g id="node7" class="node"><title>n8</title>
<ellipse fill="none" stroke="#eeb422" stroke-width="2.5" cx="425" cy="-34" rx="27" ry="18"/>
<text text-anchor="middle" x="425" y="-30.3" font-family="Times New Roman,serif" font-size="14.00">sum</text>
</g>
<!-- n7&#45;&gt;n8 -->
<g id="edge10" class="edge"><title>n7&#45;&gt;n8</title>
<path fill="none" stroke="black" d="M419.496,-103.207C418.184,-91.4484 417.908,-75.4849 418.668,-61.9577"/>
<polygon fill="black" stroke="black" points="422.176,-62.0098 419.5,-51.7584 415.199,-61.4407 422.176,-62.0098"/>
</g>
<!-- n8&#45;&gt;n7 -->
<g id="edge9" class="edge"><title>n8&#45;&gt;n7</title>
<path fill="none" stroke="black" d="M430.5,-51.7584C431.814,-63.5084 432.092,-79.4701 431.334,-93.0021"/>
<polygon fill="black" stroke="black" points="427.826,-92.9558 430.504,-103.207 434.803,-93.5235 427.826,-92.9558"/>
</g>
<!-- n9 -->
<g id="node8" class="node"><title>n9</title>
<ellipse fill="none" stroke="#b23aee" stroke-width="2.5" cx="437" cy="-208" rx="27" ry="18"/>
<text text-anchor="middle" x="437" y="-204.3" font-family="Times New Roman,serif" font-size="14.00">*</text>
</g>
<!-- n9&#45;&gt;n7 -->
<g id="edge8" class="edge"><title>n9&#45;&gt;n7</title>
<path fill="none" stroke="black" d="M434.572,-189.799C432.929,-178.163 430.724,-162.548 428.845,-149.237"/>
<polygon fill="black" stroke="black" points="432.288,-148.588 427.425,-139.175 425.357,-149.567 432.288,-148.588"/>
</g>
<!-- n10 -->
<g id="node9" class="node"><title>n10</title>
<ellipse fill="none" stroke="darkgreen" stroke-width="2.5" cx="540" cy="-295" rx="42.4939" ry="18"/>
<text text-anchor="middle" x="540" y="-291.3" font-family="Times New Roman,serif" font-size="14.00">a_matrix</text>
</g>
<!-- n10&#45;&gt;n9 -->
<g id="edge6" class="edge"><title>n10&#45;&gt;n9</title>
<path fill="none" stroke="black" d="M521.108,-278.41C504.287,-264.528 479.581,-244.14 461.294,-229.049"/>
<polygon fill="black" stroke="black" points="463.336,-226.196 453.395,-222.53 458.88,-231.595 463.336,-226.196"/>
</g>
<!-- n11 -->
<g id="node10" class="node"><title>n11</title>
<ellipse fill="none" stroke="red" stroke-width="2.5" cx="565" cy="-384" rx="27" ry="18"/>
<text text-anchor="middle" x="565" y="-380.3" font-family="Times New Roman,serif" font-size="14.00">i</text>
</g>
<!-- n11&#45;&gt;n10 -->
<g id="edge2" class="edge"><title>n11&#45;&gt;n10</title>
<path fill="none" stroke="red" d="M560.18,-366.226C556.64,-353.908 551.76,-336.923 547.685,-322.743"/>
<polygon fill="red" stroke="red" points="551.016,-321.664 544.891,-313.02 544.289,-323.598 551.016,-321.664"/>
</g>
<!-- n12 -->
<g id="node11" class="node"><title>n12</title>
<ellipse fill="none" stroke="red" stroke-width="2.5" cx="493" cy="-384" rx="27" ry="18"/>
<text text-anchor="middle" x="493" y="-380.3" font-family="Times New Roman,serif" font-size="14.00">k</text>
</g>
<!-- n12&#45;&gt;n10 -->
<g id="edge3" class="edge"><title>n12&#45;&gt;n10</title>
<path fill="none" stroke="red" d="M501.84,-366.636C508.646,-354.038 518.183,-336.385 526.02,-321.878"/>
<polygon fill="red" stroke="red" points="529.205,-323.346 530.879,-312.884 523.046,-320.019 529.205,-323.346"/>
</g>
<!-- n13 -->
<g id="node12" class="node"><title>n13</title>
<ellipse fill="none" stroke="darkgreen" stroke-width="2.5" cx="437" cy="-295" rx="42.7926" ry="18"/>
<text text-anchor="middle" x="437" y="-291.3" font-family="Times New Roman,serif" font-size="14.00">b_matrix</text>
</g>
<!-- n12&#45;&gt;n13 -->
<g id="edge4" class="edge"><title>n12&#45;&gt;n13</title>
<path fill="none" stroke="red" d="M482.729,-367.043C474.466,-354.206 462.704,-335.932 453.178,-321.133"/>
<polygon fill="red" stroke="red" points="455.942,-318.961 447.587,-312.447 450.056,-322.75 455.942,-318.961"/>
</g>
<!-- n13&#45;&gt;n9 -->
<g id="edge7" class="edge"><title>n13&#45;&gt;n9</title>
<path fill="none" stroke="black" d="M437,-276.799C437,-265.163 437,-249.548 437,-236.237"/>
<polygon fill="black" stroke="black" points="440.5,-236.175 437,-226.175 433.5,-236.175 440.5,-236.175"/>
</g>
<!-- n15 -->
<g id="node13" class="node"><title>n15</title>
<ellipse fill="none" stroke="red" stroke-width="2.5" cx="421" cy="-384" rx="27" ry="18"/>
<text text-anchor="middle" x="421" y="-380.3" font-family="Times New Roman,serif" font-size="14.00">j</text>
</g>
<!-- n15&#45;&gt;n13 -->
<g id="edge5" class="edge"><title>n15&#45;&gt;n13</title>
<path fill="none" stroke="red" d="M424.161,-365.812C426.396,-353.657 429.439,-337.114 432.001,-323.182"/>
<polygon fill="red" stroke="red" points="435.479,-323.621 433.845,-313.153 428.594,-322.355 435.479,-323.621"/>
</g>
<!-- n4 -->
<g id="node14" class="node"><title>n4</title>
<ellipse fill="none" stroke="#eeb422" stroke-width="2.5" cx="343" cy="-121" rx="27" ry="18"/>
<text text-anchor="middle" x="343" y="-117.3" font-family="Times New Roman,serif" font-size="14.00">sum</text>
</g>
<!-- n5 -->
<g id="node15" class="node"><title>n5</title>
<ellipse fill="none" stroke="#5c5c5c" stroke-width="2.5" cx="343" cy="-208" rx="27" ry="18"/>
<text text-anchor="middle" x="343" y="-204.3" font-family="Times New Roman,serif" font-size="14.00">0.0</text>
</g>
<!-- n5&#45;&gt;n4 -->
<g id="edge1" class="edge"><title>n5&#45;&gt;n4</title>
<path fill="none" stroke="black" d="M343,-189.799C343,-178.163 343,-162.548 343,-149.237"/>
<polygon fill="black" stroke="black" points="346.5,-149.175 343,-139.175 339.5,-149.175 346.5,-149.175"/>
</g>
<!-- n0 -->
<g id="node16" class="node"><title>n0</title>
<ellipse fill="none" stroke="white" stroke-width="2.5" cx="637" cy="-384" rx="27" ry="18"/>
</g>
<!-- n3 -->
<g id="node18" class="node"><title>n3</title>
<ellipse fill="none" stroke="#0000ff" stroke-width="2.5" cx="264" cy="-208" rx="31.6951" ry="18"/>
<text text-anchor="middle" x="264" y="-204.3" font-family="Times New Roman,serif" font-size="14.00">loop j</text>
</g>
<!-- n2&#45;&gt;n3 -->
<g id="edge18" class="edge"><title>n2&#45;&gt;n3</title>
<path fill="none" stroke="blue" d="M264,-276.799C264,-265.163 264,-249.548 264,-236.237"/>
<polygon fill="blue" stroke="blue" points="267.5,-236.175 264,-226.175 260.5,-236.175 267.5,-236.175"/>
<text text-anchor="middle" x="274.5" y="-247.8" font-family="Times New Roman,serif" font-size="14.00">x10</text>
</g>
<!-- n3&#45;&gt;n16 -->
<g id="edge17" class="edge"><title>n3&#45;&gt;n16</title>
<path fill="none" stroke="blue" d="M244.986,-193.531C225.733,-179.894 195.694,-158.617 173.378,-142.809"/>
<polygon fill="blue" stroke="blue" points="175.125,-139.758 164.942,-136.834 171.079,-145.47 175.125,-139.758"/>
<text text-anchor="middle" x="222.5" y="-160.8" font-family="Times New Roman,serif" font-size="14.00">x10</text>
</g>
<!-- n3&#45;&gt;n4 -->
<g id="edge15" class="edge"><title>n3&#45;&gt;n4</title>
<path fill="none" stroke="blue" d="M278.124,-191.804C290.444,-178.547 308.477,-159.145 322.406,-144.159"/>
<polygon fill="blue" stroke="blue" points="325.019,-146.488 329.263,-136.78 319.892,-141.722 325.019,-146.488"/>
<text text-anchor="middle" x="319.5" y="-160.8" font-family="Times New Roman,serif" font-size="14.00">x10</text>
</g>
<!-- n6 -->
<g id="node19" class="node"><title>n6</title>
<ellipse fill="none" stroke="#0000ff" stroke-width="2.5" cx="264" cy="-121" rx="34.394" ry="18"/>
<text text-anchor="middle" x="264" y="-117.3" font-family="Times New Roman,serif" font-size="14.00">loop k</text>
</g>
<!-- n3&#45;&gt;n6 -->
<g id="edge16" class="edge"><title>n3&#45;&gt;n6</title>
<path fill="none" stroke="blue" d="M264,-189.799C264,-178.163 264,-162.548 264,-149.237"/>
<polygon fill="blue" stroke="blue" points="267.5,-149.175 264,-139.175 260.5,-149.175 267.5,-149.175"/>
<text text-anchor="middle" x="274.5" y="-160.8" font-family="Times New Roman,serif" font-size="14.00">x10</text>
</g>
<!-- n6&#45;&gt;n8 -->
<g id="edge11" class="edge"><title>n6&#45;&gt;n8</title>
<path fill="none" stroke="blue" d="M284.941,-106.372C291.016,-102.567 297.709,-98.5147 304,-95 333.998,-78.2412 369.303,-61.0077 394.008,-49.3347"/>
<polygon fill="blue" stroke="blue" points="395.686,-52.4136 403.249,-44.9943 392.71,-46.0777 395.686,-52.4136"/>
<text text-anchor="middle" x="360.5" y="-73.8" font-family="Times New Roman,serif" font-size="14.00">x10</text>
</g>
</g>
</svg>
